<?xml version="1.0" encoding="utf-8"?>
<!-- Svg Vector Icons : http://www.onlinewebfonts.com/icon -->
<!DOCTYPE svg PUBLIC "-//W3C//DTD SVG 1.1//EN" "http://www.w3.org/Graphics/SVG/1.1/DTD/svg11.dtd">
<svg version="1.1" xmlns="http://www.w3.org/2000/svg" xmlns:xlink="http://www.w3.org/1999/xlink" x="0px" y="0px" viewBox="0 0 1000 1000" enable-background="new 0 0 1000 1000" xml:space="preserve">
<metadata> Svg Vector Icons : http://www.onlinewebfonts.com/icon </metadata>
<g><g transform="translate(0.000000,511.000000) scale(0.100000,-0.100000)"><path d="M4356.3,4526.7c-40.1-267.3-80.2-492.2-86.9-498.9c-8.9-8.9-91.3-31.2-182.6-53.5c-392-93.5-781.8-251.7-1133.7-463.3l-209.4-127l-403.1,300.7l-403.1,298.4l-405.4-405.4l-405.4-403.1l51.2-69c26.7-35.6,162.6-218.3,300.7-405.4l249.5-338.5l-82.4-129.2c-211.6-331.9-400.9-781.8-498.9-1189.4l-51.2-211.6l-269.5-40.1c-149.2-20-372-53.5-496.7-73.5L100,682.4V110v-570.2l501.1-75.7c496.7-73.5,501.1-75.7,514.5-131.4c106.9-478.9,302.9-968.9,536.8-1336.4c42.3-64.6,71.3-129.2,64.6-144.8c-4.5-13.4-140.3-200.5-300.7-414.3l-289.5-389.8l405.4-405.4l403.1-405.4l69,51.2c256.1,193.8,743.9,547.9,755,547.9c6.7,0,64.6-33.4,129.2-75.7c323-204.9,844.1-420.9,1209.4-501.1l176-37.8l37.9-245c20-133.6,53.5-360.8,75.7-505.6l40.1-260.6h570.2h572.4l77.9,505.6l75.7,505.6l142.5,28.9c356.4,71.3,855.3,276.2,1218.3,498.9c82.4,49,158.2,84.7,173.7,78c13.4-4.4,200.5-140.3,414.3-300.7l389.8-289.5l405.4,403.1L8871-2957l-115.8,158.1c-345.2,465.5-481.1,654.8-481.1,665.9c0,8.9,44.5,89.1,100.2,180.4c211.6,347.4,385.3,766.2,478.9,1158.2c24.5,95.8,44.5,178.2,49,180.4c4.5,4.5,229.4,40.1,503.3,80.2l494.5,71.3v574.6v572.4l-193.8,26.7c-109.1,15.6-331.8,49-496.7,75.7l-298.5,46.8L8851,1061c-109.2,427.6-247.2,757.3-463.3,1115.9L8276.3,2364l298.5,403.1l298.5,405.4l-403.1,405.4l-405.4,405.4l-89.1-66.8c-51.2-37.9-233.9-173.7-407.6-300.7l-316.3-233.9l-118,75.7c-347.4,222.7-719.4,383.1-1142.6,494.5l-267.3,71.3l-35.6,231.6c-20.1,126.9-53.5,349.7-75.7,494.4l-40.1,260.6H5000h-572.4L4356.3,4526.7z M5634.8,3185.9c617-135.9,1140.4-418.7,1581.4-859.7s739.5-997.8,870.9-1625.9c57.9-278.4,57.9-899.8,2.2-1169.3c-91.3-425.4-249.5-808.5-474.4-1147c-171.5-258.4-209.4-300.7-209.4-227.2c0,55.7-135.8,236.1-211.6,282.9c-40.1,24.5-193.8,84.6-340.8,131.4c-278.4,91.3-641.5,256.1-850.8,389.8c-66.8,42.3-124.7,71.3-127,62.4c-345.2-1089.2-456.6-1441-490-1539.1l-42.3-120.3L5238.3-2340l-102.5,294l86.9,144.8c93.6,153.7,129.2,309.6,98,405.4c-26.7,78-189.3,158.1-320.7,158.1c-122.5,0-276.2-66.8-311.8-135.9c-46.8-86.9-15.6-249.5,84.6-421l89.1-155.9L4761.7-2340c-55.7-160.4-106.9-285.1-111.4-280.6c-4.4,4.4-126.9,378.6-269.5,833L4118-963.6l-187.1-113.6c-242.8-142.6-563.5-285.1-815.2-360.8c-109.1-33.4-240.5-84.6-289.5-113.6c-89.1-51.2-231.6-229.4-231.6-291.8c0-64.6-44.5-20-173.7,167c-249.5,363-423.2,777.3-510.1,1200.5c-60.1,291.8-53.5,919.9,11.1,1213.9c135.9,621.4,421,1149.3,862,1588c494.5,494.5,1115.9,804,1817.5,902C4828.5,3259.4,5403.1,3237.1,5634.8,3185.9z"/><path d="M4759.5,2323.9c-222.7-57.9-441-202.7-650.4-423.2c-280.6-298.4-394.2-683.8-302.9-1029c26.7-106.9,26.7-115.8-8.9-115.8c-66.8,0-111.4-73.5-111.4-187.1c0-200.4,106.9-521.2,207.1-616.9c31.2-33.4,69-113.6,93.5-207.2c57.9-224.9,160.4-409.8,298.5-550.1c149.2-147,311.8-231.7,543.5-278.4c153.7-31.2,189.3-31.2,334.1-2.2c227.2,46.8,363,115.8,512.3,262.8c138.1,140.3,231.6,309.6,294,543.5c28.9,104.7,51.2,144.8,77.9,144.8c104.7,0,242.8,314,262.8,594.7c8.9,135.9,4.5,162.6-33.4,196c-40.1,33.4-42.3,46.8-15.6,207.1c55.7,331.9,31.2,650.4-60.1,830.8c-42.3,84.6-182.6,220.5-227.2,220.5c-15.6,0-93.5,62.4-171.5,140.3c-220.5,213.8-449.9,305.1-757.3,302.9C4953.2,2357.3,4824,2341.7,4759.5,2323.9z"/></g></g>
</svg>