<?xml version="1.0" encoding="utf-8"?>
<!-- Generator: Adobe Illustrator 23.0.2, SVG Export Plug-In . SVG Version: 6.00 Build 0)  -->
<svg version="1.1" id="Layer_1" xmlns="http://www.w3.org/2000/svg" xmlns:xlink="http://www.w3.org/1999/xlink" x="0px" y="0px"
	 viewBox="0 0 167.2373 250.2633" enable-background="new 0 0 167.2373 250.2633" xml:space="preserve">
<g>
	<path d="M164.0706,63.9708h-18.4489h-13.5788H69.3234h-4.6138h-0.92c0.8123,2.547,1.2706,5.5005,1.2706,8.8573
		c0,7.2197-4.6576,14.7413-8.7916,19.9977L54.033,76.3534c-1.2953,0.4861-2.6575,0.7404-4.0206,0.7404h-0.0059h-0.002
		c-1.3645,0.0009-2.7291-0.2531-4.0266-0.7394L43.743,92.8245c-4.134-5.2563-8.7912-12.7773-8.7912-19.9964
		c0-3.3568,0.4583-6.3103,1.2706-8.8573h-5.5339c-0.1633,0-0.323,0.0144-0.4838,0.0244c-2.8148,0.0659-8.2963,0.9715-13.9092,6.2444
		C3.4039,82.3529-1.8803,109.9169,0.5914,152.1654c0.249,4.252,3.7744,7.5332,7.9785,7.5327c0.1572,0,0.3164-0.0044,0.4746-0.0137
		c4.4111-0.2578,7.7773-4.043,7.5195-8.4536c-2.0559-35.1398,1.9258-53.8707,6.396-63.1678v44.2415l-8.5302,104.59
		c-0.5547,6.8071,4.5136,12.7725,11.3183,13.3272c6.8047,0.5542,12.7734-4.5098,13.3281-11.3174l7.4286-91.084h7.0021l7.4286,91.084
		c0.5547,6.8076,6.5234,11.8716,13.3281,11.3174c6.8047-0.5547,11.8731-6.5201,11.3184-13.3272L77.0518,132.303V79.9708h68.5699
		c2.518,0,3.5985-5.1963,3.2463-9.6666h15.2026c1.7488,0,3.1667-1.4179,3.1667-3.1667S165.8194,63.9708,164.0706,63.9708z
		 M60.8385,93.877h12.5v4.5h-12.5V93.877z M50.0065,108.0449c-1.9336,0-3.5-1.5673-3.5-3.5c0-1.9336,1.5664-3.5,3.5-3.5
		c1.9326,0,3.5,1.5664,3.5,3.5C53.5065,106.4776,51.9391,108.0449,50.0065,108.0449z M50.0065,116.2949c1.9326,0,3.5,1.5664,3.5,3.5
		c0,1.9327-1.5674,3.5-3.5,3.5c-1.9336,0-3.5-1.5673-3.5-3.5C46.5065,117.8613,48.0729,116.2949,50.0065,116.2949z
		 M50.0065,138.5449c-1.9336,0-3.5-1.5673-3.5-3.5c0-1.9336,1.5664-3.5,3.5-3.5c1.9326,0,3.5,1.5664,3.5,3.5
		C53.5065,136.9776,51.9391,138.5449,50.0065,138.5449z"/>
	<path d="M55.7057,71.6758l-1.9005-7.5h-3.7988h-3.8008l-1.9005,7.5l0.2915,0.4601c1.5648,1.303,3.4799,1.9561,5.4077,1.9579
		c1.9281-0.0018,3.8463-0.6564,5.4124-1.962L55.7057,71.6758z"/>
	<path d="M59.16,56.3575c7.862-3.5071,13.3455-11.3865,13.3455-20.5529c0-2.8143-0.5212-5.5056-1.4649-7.9888
		c0.5367-0.557,0.8591-1.1435,0.9407-1.75c2.6182,0.092,4.6315-0.33,5.5203-1.7319C80.484,19.6309,72.8395,0,50.0065,0
		C27.1725,0,19.528,19.6309,22.5104,24.334c0.8887,1.4019,2.902,1.824,5.5203,1.7319c0.0816,0.6065,0.404,1.193,0.9407,1.75
		c-0.9437,2.4832-1.4649,5.1745-1.4649,7.9888c0,9.1663,5.4835,17.0456,13.3458,20.5528c2.7974,1.2479,5.8933,1.9472,9.1542,1.9472
		C53.2671,58.3047,56.3627,57.6053,59.16,56.3575z M50.0065,4.0938c2.1166,0,3.8807,1.4682,4.3602,3.4377
		c2.5242-0.3517,5.6387-0.8538,5.6387-0.8538s-2.9181,2.3785-5.8131,3.5405c-0.6528,1.6804-2.2757,2.8755-4.1859,2.8755
		c-1.9114,0-3.5333-1.1948-4.1859-2.8748c-2.8954-1.1617-5.8141-3.5412-5.8141-3.5412s3.1151,0.502,5.6396,0.8538
		C46.1253,5.562,47.8882,4.0938,50.0065,4.0938z M50.0065,15.4278c12.1494,0,21.999,3.1347,21.999,7
		c0,0.5747-0.2224,1.1327-0.6329,1.6671c-2.351-3.0606-11.0227-5.3332-21.3661-5.3332c-10.3442,0-19.0162,2.2726-21.3671,5.3332
		c-0.4105-0.5344-0.6329-1.0924-0.6329-1.6671C28.0065,18.5625,37.8561,15.4278,50.0065,15.4278z"/>
</g>
</svg>
