<svg xmlns="http://www.w3.org/2000/svg" viewBox="0 0 24 24"><path fill="#00007D" d="M21.179 12.002c0-5.068-4.113-9.181-9.181-9.181-5.068 0-9.181 4.113-9.181 9.181 0 5.068 4.113 9.181 9.181 9.181 5.068 0 9.181-4.113 9.181-9.181z"/><path fill="#FFF" d="M18.491 8.198a2.69 2.69 0 0 0-2.689-2.689c-1.484 0-2.689 1.205-2.689 2.689s1.205 2.689 2.689 2.689 2.689-1.205 2.689-2.689z"/><path fill="#00007D" d="M23.868 2.821c0-1.484-1.205-2.689-2.689-2.689S18.49 1.337 18.49 2.821a2.69 2.69 0 0 0 2.689 2.689 2.69 2.69 0 0 0 2.689-2.689z"/><path fill="#FFF" d="M5.738 10.663h.803v5.221h2.973v.706H5.738v-5.927zm5.225 1.606v2.869c0 .221.034.401.102.541.126.258.36.387.703.387.492 0 .828-.226 1.006-.678.097-.242.145-.574.145-.997v-2.122h.726v4.321h-.685l.008-.637a1.445 1.445 0 0 1-.345.416 1.498 1.498 0 0 1-.99.339c-.604 0-1.016-.206-1.235-.617-.119-.22-.178-.515-.178-.884V12.27l.743-.001zm6.185 1.706c.167-.021.278-.091.335-.209a.648.648 0 0 0 .048-.279c0-.248-.088-.429-.264-.541-.176-.112-.427-.168-.755-.168-.379 0-.647.103-.805.308-.089.114-.146.283-.173.507h-.678c.013-.534.186-.906.518-1.115a2.121 2.121 0 0 1 1.154-.314c.508 0 .92.097 1.237.29.314.194.471.495.471.904v2.489c0 .075.015.136.046.181.031.046.096.068.196.068a1.803 1.803 0 0 0 .238-.024v.537a2.044 2.044 0 0 1-.258.06c-.059.008-.14.012-.242.012-.25 0-.432-.089-.545-.266a1.025 1.025 0 0 1-.125-.399 1.83 1.83 0 0 1-.638.504 1.978 1.978 0 0 1-.916.214c-.401 0-.728-.122-.982-.365a1.21 1.21 0 0 1-.381-.913c0-.4.125-.71.375-.931.25-.22.578-.356.984-.407l1.16-.143zm-1.529 1.962a.852.852 0 0 0 .545.181c.255 0 .503-.059.742-.177.403-.196.605-.517.605-.963v-.584a1.244 1.244 0 0 1-.342.142 2.84 2.84 0 0 1-.411.081l-.439.056c-.263.035-.461.09-.593.165-.225.126-.337.327-.337.604 0 .209.076.374.23.495z"/><path fill="#929292" d="m12.425 24-.01-.275c.34-.012.684-.039 1.02-.08l.033.273c-.344.042-.695.07-1.043.082zm-1.047-.009a12.08 12.08 0 0 1-1.042-.099l.038-.273c.336.047.679.079 1.019.097l-.015.275zm3.123-.245-.057-.269c.333-.071.666-.157.991-.256l.081.263c-.335.102-.673.189-1.015.262zm-5.195-.043a12.042 12.042 0 0 1-1.009-.279l.085-.262c.325.105.654.196.986.272l-.062.269zm7.196-.57-.103-.255c.316-.128.626-.27.93-.425l.125.245c-.31.159-.628.304-.952.435zm-9.188-.075a12.029 12.029 0 0 1-.945-.451l.129-.243c.3.16.611.308.924.441l-.108.253zm11.051-.877-.146-.233c.289-.181.57-.375.843-.581l.166.22c-.279.211-.567.409-.863.594zm-12.898-.107c-.293-.19-.577-.393-.853-.609l.17-.217c.269.21.547.409.833.595l-.15.231zm14.568-1.154-.184-.204c.253-.228.498-.469.73-.718l.201.188c-.239.256-.488.501-.747.734zm-16.217-.135a12.048 12.048 0 0 1-.735-.747l.204-.184c.229.253.468.497.718.729l-.187.202zm17.644-1.395-.217-.17c.21-.269.409-.547.595-.833l.231.15c-.191.294-.394.578-.609.853zm-19.046-.158a12.102 12.102 0 0 1-.595-.862l.233-.146c.181.289.375.57.581.842l-.219.166zm20.188-1.596-.243-.129c.16-.3.308-.611.441-.924l.253.108c-.136.321-.287.636-.451.945zm-21.3-.176a12.375 12.375 0 0 1-.436-.952l.255-.104c.128.316.27.626.426.93l-.245.126zm22.119-1.751-.262-.085c.105-.324.196-.653.273-.986l.268.062c-.078.34-.172.677-.279 1.009zM.518 15.521c-.102-.334-.19-.672-.263-1.014l.269-.057c.071.334.157.664.257.99l-.263.081zm23.374-1.851-.273-.038c.047-.336.079-.679.097-1.018l.275.014c-.018.348-.051.696-.099 1.042zm-23.81-.196C.04 13.128.012 12.779 0 12.43l.275-.01c.012.34.039.683.08 1.02l-.273.034zm23.643-1.884c-.012-.34-.039-.683-.08-1.02l.273-.034c.042.345.07.697.082 1.044l-.275.01zM.283 11.397l-.275-.014c.018-.348.051-.699.098-1.042l.273.038a11.96 11.96 0 0 0-.096 1.018zm23.193-1.836a12.105 12.105 0 0 0-.256-.991l.263-.08c.102.334.19.672.262 1.014l-.269.057zM.563 9.373l-.268-.062c.078-.34.171-.677.278-1.01l.262.085c-.104.325-.195.654-.272.987zm22.315-1.768a11.65 11.65 0 0 0-.424-.931l.245-.125c.159.311.303.629.434.953l-.255.103zM1.193 7.427.94 7.32c.136-.322.287-.637.451-.946l.243.129c-.16.302-.307.61-.441.924zm.96-1.805-.231-.15c.19-.293.393-.577.608-.853l.217.17a11.73 11.73 0 0 0-.594.833zM3.412 4.01l-.202-.188c.238-.256.487-.501.746-.735l.185.204c-.253.229-.497.469-.729.719zm1.517-1.371-.166-.219c.279-.211.566-.41.862-.596l.147.233c-.29.182-.571.376-.843.582zm13.461-.478-.015-.01.15-.231.015.009-.15.232zm-.898-.528c-.302-.16-.61-.306-.924-.439l.107-.254c.322.136.637.286.946.45l-.129.243zM6.66 1.552l-.125-.245c.311-.16.628-.305.952-.437l.103.256c-.316.128-.626.27-.93.426zm8.949-.715a11.62 11.62 0 0 0-.987-.272l.062-.268c.339.078.679.171 1.01.278l-.085.262zM8.554.782 8.473.519c.334-.102.672-.19 1.014-.263l.057.269c-.333.072-.664.157-.99.257zm5.062-.403c-.337-.047-.68-.079-1.019-.097l.014-.275c.347.018.698.051 1.043.099l-.038.273zM10.553.356 10.52.083c.344-.043.695-.07 1.043-.083l.01.275c-.34.013-.683.04-1.02.081z"/></svg>