<svg xmlns="http://www.w3.org/2000/svg" width="107.828" height="56.13"><ellipse cx="53.914" cy="28.065" fill="#8993be" data-name="Ellipse 31" rx="53.914" ry="28.065"/><path fill="#232531" fill-rule="evenodd" d="m15.14 44.682 5.909-29.911h13.662c5.908.369 8.863 3.323 8.863 8.494 0 8.863-7.016 14.032-13.294 13.663h-6.646l-1.477 7.755Zm9.97-13.294 1.847-11.078h4.8c2.585 0 4.431 1.108 4.431 3.323-.369 6.278-3.323 7.386-6.647 7.755h-4.43Zm17.091 5.539 5.908-29.911h7.016l-1.477 7.754h6.647c5.909.369 8.124 3.323 7.386 7.016l-2.586 15.141h-7.384l2.584-13.663c.369-1.847.369-2.954-2.216-2.954h-5.538l-3.324 16.617Zm22.422 7.755 5.908-29.911h13.664c5.909.369 8.863 3.323 8.863 8.494 0 8.863-7.016 14.032-13.294 13.663h-6.648l-1.477 7.755Zm9.972-13.294 1.847-11.078h4.8c2.585 0 4.431 1.108 4.431 3.323-.369 6.278-3.323 7.386-6.647 7.755h-4.431Z" data-name="Path 289"/></svg>