<svg xmlns="http://www.w3.org/2000/svg" viewBox="0 0 24 24"><path fill="#146FBF" d="M.819 21h18.23c.568 0 1.135-.462 1.265-1.032l3.659-15.936c.131-.57-.224-1.032-.792-1.032H4.951c-.568 0-1.135.462-1.265 1.032L.027 19.968C-.104 20.538.251 21 .819 21zm15.63-4.295c.511 0 .925.412.928.92a.926.926 0 0 1-.928.92H12.01a.927.927 0 0 1-.934-.92.926.926 0 0 1 .928-.92h4.445zm-11.639.306 7.42-5.358v-.11L7.568 6.598c-.38-.403-.341-1.055.088-1.457.429-.402 1.086-.4 1.466.004l5.594 5.934c.317.337.341.846.09 1.239-.076.154-.234.322-.514.519l-8.229 5.892c-.449.326-1.094.205-1.44-.269-.346-.475-.263-1.123.187-1.449z"/></svg>